HIERARCHY
ROOT reference
{
  OFFSET 0 0 0
  CHANNELS 6 Xposition Yposition Zposition Zrotation Xrotation Yrotation
  JOINT Hips
  {
    OFFSET 370.543 87.5 183.721
    CHANNELS 3 Zrotation Xrotation Yrotation
    JOINT RightUpLeg
    {
      OFFSET -9.29072 -1.53718 -0.00769521
      CHANNELS 3 Zrotation Xrotation Yrotation
      JOINT RightLeg
      {
        OFFSET 0.000649198 -41.8926 0.0287464
        CHANNELS 3 Zrotation Xrotation Yrotation
        JOINT RightFoot
        {
          OFFSET -0.131981 -42.8927 0.241786
          CHANNELS 3 Zrotation Xrotation Yrotation
          End Site
          {
            OFFSET 0 -7.69 17.5
          }
        }
      }
    }
    JOINT LeftUpLeg
    {
      OFFSET 9.29816 -1.6623 -0.0330144
      CHANNELS 3 Zrotation Xrotation Yrotation
      JOINT LeftLeg
      {
        OFFSET 0.0555409 -41.8801 -0.0492089
        CHANNELS 3 Zrotation Xrotation Yrotation
        JOINT LeftFoot
        {
          OFFSET 0.737583 -41.1094 -0.206555
          CHANNELS 3 Zrotation Xrotation Yrotation
          End Site
          {
            OFFSET 0 -7.69 17.5
          }
        }
      }
    }
    JOINT Spine
    {
      OFFSET 0.0742767 14.2946 0.0485675
      CHANNELS 3 Zrotation Xrotation Yrotation
      JOINT Spine1
      {
        OFFSET 0.0332084 9.70841 0.0159593
        CHANNELS 3 Zrotation Xrotation Yrotation
        JOINT Spine2
        {
          OFFSET 0.0388468 10.1231 0.00288192
          CHANNELS 3 Zrotation Xrotation Yrotation
          JOINT Spine3
          {
            OFFSET 0.0300771 9.71993 0.00776905
            CHANNELS 3 Zrotation Xrotation Yrotation
            JOINT Neck
            {
              OFFSET 0.058413 10.382 0.0516165
              CHANNELS 3 Zrotation Xrotation Yrotation
              JOINT Head
              {
                OFFSET 0.0298281 9.47849 0.0268718
                CHANNELS 3 Zrotation Xrotation Yrotation
                End Site
                {
                  OFFSET 0 15.95 0
                }
              }
            }
            JOINT RightShoulder
            {
              OFFSET -3.15612 6.91385 0.0353801
              CHANNELS 3 Zrotation Xrotation Yrotation
              JOINT RightArm
              {
                OFFSET -12.7781 -0.0057607 0.0332486
                CHANNELS 3 Zrotation Xrotation Yrotation
                JOINT RightForeArm
                {
                  OFFSET -26.4999 -0.0425897 0.0409183
                  CHANNELS 3 Zrotation Xrotation Yrotation
                  JOINT RightHand
                  {
                    OFFSET -25.993 -0.0294641 0.00108206
                    CHANNELS 3 Zrotation Xrotation Yrotation
                    JOINT RightHandThumb1
                    {
                      OFFSET -2.48905 0.190105 3.12053
                      CHANNELS 3 Zrotation Xrotation Yrotation
                      JOINT RightHandThumb2
                      {
                        OFFSET -3.68274 0 0
                        CHANNELS 3 Zrotation Xrotation Yrotation
                        JOINT RightHandThumb3
                        {
                          OFFSET -2.55832 0 0
                          CHANNELS 3 Zrotation Xrotation Yrotation
                          End Site
                          {
                            OFFSET -2.194 0 0
                          }
                        }
                      }
                    }
                    JOINT RightInHandIndex
                    {
                      OFFSET -3.22368 0.508421 1.97842
                      CHANNELS 3 Zrotation Xrotation Yrotation
                      JOINT RightHandIndex1
                      {
                        OFFSET -5.21684 -0.091368 0.999158
                        CHANNELS 3 Zrotation Xrotation Yrotation
                        JOINT RightHandIndex2
                        {
                          OFFSET -3.61937 0 0
                          CHANNELS 3 Zrotation Xrotation Yrotation
                          JOINT RightHandIndex3
                          {
                            OFFSET -2.0521 0 0
                            CHANNELS 3 Zrotation Xrotation Yrotation
                            End Site
                            {
                              OFFSET -1.805 0 0
                            }
                          }
                        }
                      }
                    }
                    JOINT RightInHandMiddle
                    {
                      OFFSET -3.38211 0.517263 0.756737
                      CHANNELS 3 Zrotation Xrotation Yrotation
                      JOINT RightHandMiddle1
                      {
                        OFFSET -5.17411 -0.084 0.313895
                        CHANNELS 3 Zrotation Xrotation Yrotation
                        JOINT RightHandMiddle2
                        {
                          OFFSET -3.94947 0 0
                          CHANNELS 3 Zrotation Xrotation Yrotation
                          JOINT RightHandMiddle3
                          {
                            OFFSET -2.47579 0 0
                            CHANNELS 3 Zrotation Xrotation Yrotation
                            End Site
                            {
                              OFFSET -1.975 0 0
                            }
                          }
                        }
                      }
                    }
                    JOINT RightInHandRing
                    {
                      OFFSET -3.36516 0.537895 -0.128947
                      CHANNELS 3 Zrotation Xrotation Yrotation
                      JOINT RightHandRing1
                      {
                        OFFSET -4.63474 -0.022105 -0.478947
                        CHANNELS 3 Zrotation Xrotation Yrotation
                        JOINT RightHandRing2
                        {
                          OFFSET -3.44238 0 0
                          CHANNELS 3 Zrotation Xrotation Yrotation
                          JOINT RightHandRing3
                          {
                            OFFSET -2.3881 0 0
                            CHANNELS 3 Zrotation Xrotation Yrotation
                            End Site
                            {
                              OFFSET -1.857 0 0
                            }
                          }
                        }
                      }
                    }
                    JOINT RightInHandPinky
                    {
                      OFFSET -3.16105 0.469368 -1.20179
                      CHANNELS 3 Zrotation Xrotation Yrotation
                      JOINT RightHandPinky1
                      {
                        OFFSET -4.14105 -0.022105 -1.09053
                        CHANNELS 3 Zrotation Xrotation Yrotation
                        JOINT RightHandPinky2
                        {
                          OFFSET -2.75653 0 0
                          CHANNELS 3 Zrotation Xrotation Yrotation
                          JOINT RightHandPinky3
                          {
                            OFFSET -1.74189 0 0
                            CHANNELS 3 Zrotation Xrotation Yrotation
                            End Site
                            {
                              OFFSET -1.645 0 0
                            }
                          }
                        }
                      }
                    }
                  }
                }
              }
            }
            JOINT LeftShoulder
            {
              OFFSET 3.24463 6.9123 -0.0189685
              CHANNELS 3 Zrotation Xrotation Yrotation
              JOINT LeftArm
              {
                OFFSET 12.8793 -0.0485389 -0.0634723
                CHANNELS 3 Zrotation Xrotation Yrotation
                JOINT LeftForeArm
                {
                  OFFSET 26.4894 0.00252616 -0.136149
                  CHANNELS 3 Zrotation Xrotation Yrotation
                  JOINT LeftHand
                  {
                    OFFSET 26.005 0.0292639 -0.0166184
                    CHANNELS 3 Zrotation Xrotation Yrotation
                    JOINT LeftHandThumb1
                    {
                      OFFSET 2.48905 0.190105 3.12053
                      CHANNELS 3 Zrotation Xrotation Yrotation
                      JOINT LeftHandThumb2
                      {
                        OFFSET 3.68274 0 0
                        CHANNELS 3 Zrotation Xrotation Yrotation
                        JOINT LeftHandThumb3
                        {
                          OFFSET 2.55832 0 0
                          CHANNELS 3 Zrotation Xrotation Yrotation
                          End Site
                          {
                            OFFSET 2.194 0 0
                          }
                        }
                      }
                    }
                    JOINT LeftInHandIndex
                    {
                      OFFSET 3.22368 0.508421 1.97842
                      CHANNELS 3 Zrotation Xrotation Yrotation
                      JOINT LeftHandIndex1
                      {
                        OFFSET 5.21684 -0.091368 0.999158
                        CHANNELS 3 Zrotation Xrotation Yrotation
                        JOINT LeftHandIndex2
                        {
                          OFFSET 3.61937 0 0
                          CHANNELS 3 Zrotation Xrotation Yrotation
                          JOINT LeftHandIndex3
                          {
                            OFFSET 2.0521 0 0
                            CHANNELS 3 Zrotation Xrotation Yrotation
                            End Site
                            {
                              OFFSET 1.805 0 0
                            }
                          }
                        }
                      }
                    }
                    JOINT LeftInHandMiddle
                    {
                      OFFSET 3.38211 0.517263 0.756737
                      CHANNELS 3 Zrotation Xrotation Yrotation
                      JOINT LeftHandMiddle1
                      {
                        OFFSET 5.17411 -0.084 0.313895
                        CHANNELS 3 Zrotation Xrotation Yrotation
                        JOINT LeftHandMiddle2
                        {
                          OFFSET 3.94947 0 0
                          CHANNELS 3 Zrotation Xrotation Yrotation
                          JOINT LeftHandMiddle3
                          {
                            OFFSET 2.47579 0 0
                            CHANNELS 3 Zrotation Xrotation Yrotation
                            End Site
                            {
                              OFFSET 1.975 0 0
                            }
                          }
                        }
                      }
                    }
                    JOINT LeftInHandRing
                    {
                      OFFSET 3.36516 0.537895 -0.128947
                      CHANNELS 3 Zrotation Xrotation Yrotation
                      JOINT LeftHandRing1
                      {
                        OFFSET 4.63474 -0.022105 -0.478947
                        CHANNELS 3 Zrotation Xrotation Yrotation
                        JOINT LeftHandRing2
                        {
                          OFFSET 3.44238 0 0
                          CHANNELS 3 Zrotation Xrotation Yrotation
                          JOINT LeftHandRing3
                          {
                            OFFSET 2.3881 0 0
                            CHANNELS 3 Zrotation Xrotation Yrotation
                            End Site
                            {
                              OFFSET 1.857 0 0
                            }
                          }
                        }
                      }
                    }
                    JOINT LeftInHandPinky
                    {
                      OFFSET 3.16105 0.469368 -1.20179
                      CHANNELS 3 Zrotation Xrotation Yrotation
                      JOINT LeftHandPinky1
                      {
                        OFFSET 4.14105 -0.022105 -1.09053
                        CHANNELS 3 Zrotation Xrotation Yrotation
                        JOINT LeftHandPinky2
                        {
                          OFFSET 2.75653 0 0
                          CHANNELS 3 Zrotation Xrotation Yrotation
                          JOINT LeftHandPinky3
                          {
                            OFFSET 1.74189 0 0
                            CHANNELS 3 Zrotation Xrotation Yrotation
                            End Site
                            {
                              OFFSET 1.645 0 0
                            }
                          }
                        }
                      }
                    }
                  }
                }
              }
            }
          }
        }
      }
    }
  }
}
MOTION
Frames: 2
Frame Time: 0.00833333
3.000000000000000000e+02 0.000000000000000000e+00 0.000000000000000000e+00 0.000000000000000000e+00 0.000000000000000000e+00 0.000000000000000000e+00 4.681779163229892772e-03 3.634426697050058795e-03 -1.029798474237741696e-04 -1.145636296734626504e-02 3.961021475879436884e-03 -3.311852091507040685e-02 -1.188092048598095828e-02 -1.943488784157976212e-02 2.356210878724958324e-02 3.879872667669215843e-03 1.226442694699480564e-02 4.130666978005942576e-03 -1.595832614725748106e-03 -7.055000921634659722e-03 5.677953049053665116e-03 7.355059727708530316e-03 5.181549877997102677e-03 -1.161359721708834364e-02 1.160287104235399364e-04 -5.402818370080314687e-03 -1.404640469884848556e-04 1.367368265787584532e-03 5.187722986477980329e-04 3.326314176011970110e-04 -6.198819841903430161e-04 -1.570815795752103245e-03 -5.828935937726319920e-04 -8.059909201517160247e-04 -6.713424452531663246e-05 4.356091125075117667e-04 -2.896325518605714086e-04 9.994974453997604649e-05 9.908810599422266264e-04 -2.595677727156540937e-04 3.542130654965173131e-04 9.324500827947947070e-04 -6.975142325592790724e-03 -1.533044063535272082e-02 -1.246785741202570495e-03 -1.250438831953499565e-02 -2.807382109608867748e-02 4.368459479423360270e-02 -6.983370622462475863e-02 8.437323748266796486e-02 1.041013565718531542e-01 -3.244966740497458590e-01 -7.768765581198941450e-02 -3.351997686599926252e-01 9.693490487734296446e-02 -8.255819393397537120e-02 1.379914148567760179e-01 0.000000000000000000e+00 0.000000000000000000e+00 0.000000000000000000e+00 4.357096239729594679e-15 -1.064800848390217415e-15 0.000000000000000000e+00 3.264513213172963515e-15 5.293368563602728079e-16 0.000000000000000000e+00 -2.924266752041672484e-15 -4.640560999122587518e-16 4.972870871619961886e-15 0.000000000000000000e+00 0.000000000000000000e+00 0.000000000000000000e+00 0.000000000000000000e+00 4.229340577118246251e-15 2.581048622418002104e-15 0.000000000000000000e+00 2.818677050581192107e-15 7.618732498941122453e-15 -2.924266752041672484e-15 -4.640560999122587518e-16 4.972870871619961886e-15 0.000000000000000000e+00 -2.585251786145585015e-15 4.011730147398377147e-15 0.000000000000000000e+00 2.526569833866778416e-15 6.391007537524567239e-15 0.000000000000000000e+00 2.256862101712599444e-15 1.867418413253710220e-15 -2.924266752041672484e-15 -4.640560999122587518e-16 4.972870871619961886e-15 0.000000000000000000e+00 0.000000000000000000e+00 0.000000000000000000e+00 0.000000000000000000e+00 -4.501168119477873946e-16 5.180974371080895887e-15 0.000000000000000000e+00 -2.787717693377791451e-15 1.826817655185771616e-15 -2.924266752041672484e-15 -4.640560999122587518e-16 4.972870871619961886e-15 0.000000000000000000e+00 0.000000000000000000e+00 0.000000000000000000e+00 0.000000000000000000e+00 -5.984588645922570395e-15 1.398630386765608460e-14 0.000000000000000000e+00 3.743803119568465518e-15 7.107937178060831393e-16 3.021632134484442470e-03 3.306488077832779940e-03 8.885136910984074710e-03 -3.255583541085407123e-02 -2.279171169858718038e-02 1.267151069878931502e-02 -1.516178656810179305e-02 -6.632643666615722911e-02 -2.386672006013445049e-02 2.425644478232512335e-02 4.531812408603845543e-02 2.254659744940314473e-02 0.000000000000000000e+00 0.000000000000000000e+00 0.000000000000000000e+00 -1.807016808991250929e-15 1.529739049625222299e-15 0.000000000000000000e+00 4.340544081133858354e-15 -1.842166606082854312e-15 0.000000000000000000e+00 -1.094259603622757947e-15 -7.120938142590998300e-15 6.707345495222795660e-16 0.000000000000000000e+00 0.000000000000000000e+00 0.000000000000000000e+00 0.000000000000000000e+00 1.247656666213700026e-15 -3.523037871863349156e-15 0.000000000000000000e+00 1.012237428083621510e-15 -2.134449193124047303e-15 -1.094259603622757947e-15 -7.120938142590998300e-15 6.707345495222795660e-16 0.000000000000000000e+00 -2.772965543292361266e-15 -4.826444156585977665e-15 0.000000000000000000e+00 4.722153647147911814e-15 -1.301555080408708554e-17 0.000000000000000000e+00 5.042616226573889301e-16 2.220501493593141338e-15 -1.094259603622757947e-15 -7.120938142590998300e-15 6.707345495222795660e-16 0.000000000000000000e+00 0.000000000000000000e+00 0.000000000000000000e+00 0.000000000000000000e+00 -3.508114802011207235e-15 -5.631830340483935188e-15 0.000000000000000000e+00 -1.063939085289913611e-16 -1.597889467464643170e-15 -1.094259603622757947e-15 -7.120938142590998300e-15 6.707345495222795660e-16 0.000000000000000000e+00 0.000000000000000000e+00 0.000000000000000000e+00 0.000000000000000000e+00 -3.717394919469136986e-15 6.370899907762880069e-16 0.000000000000000000e+00 4.236853712707875528e-17 -9.328388537868756160e-15
3.000000000000000000e+02 0.000000000000000000e+00 0.000000000000000000e+00 0.000000000000000000e+00 0.000000000000000000e+00 0.000000000000000000e+00 1.063833245785578932e-04 1.810779595797649868e-05 2.669118968717104200e-03 -5.676227050404339391e-03 1.019926809709391976e-03 -8.804552556447818590e-03 -4.215646388572112831e-03 -5.056293893027354221e-03 -5.168503067971982282e-04 2.439395833236622513e-03 7.143917989090902559e-03 4.684183338707746495e-03 4.021101409284865563e-03 2.259046293087497211e-03 -1.860971914655048208e-03 -4.824117139131805197e-03 -9.764993245309879638e-03 4.692416174374648002e-03 -1.856319141493000631e-03 9.073673019651356045e-03 5.297001630111823796e-04 3.235463528631348385e-03 -1.868405303993885685e-03 -5.277318696248276507e-03 7.088510656841790500e-04 -8.289211721720588779e-04 -8.482795504919549319e-04 1.205960000316172280e-03 -7.685842276542723854e-04 -1.883923830780911751e-03 -8.229378920260203899e-05 1.838126113307860096e-04 2.024353116622542681e-04 -8.450364780741838561e-05 -6.545509033931078244e-05 1.908407252075356613e-04 -7.688127378271851020e-04 3.060698424493856016e-03 4.984354377082530867e-03 -5.123002144972731500e-03 -1.404913248060229514e-03 8.090633000114923548e-03 1.943485869986883580e-02 -2.444459217585624386e-02 -3.811133910513245238e-02 6.444944939345373380e-02 2.544684013043656268e-02 6.463306258698563178e-02 7.141031976979514591e-03 1.942967145781332840e-03 -3.468714597687181343e-03 0.000000000000000000e+00 0.000000000000000000e+00 0.000000000000000000e+00 -3.998676249013766501e-15 -1.264497623796053474e-15 0.000000000000000000e+00 -2.478180355097829308e-15 -7.875640281399498870e-16 0.000000000000000000e+00 1.360379093405595354e-15 -2.024599906129918282e-16 1.083155665078074180e-15 0.000000000000000000e+00 0.000000000000000000e+00 0.000000000000000000e+00 0.000000000000000000e+00 -1.508664019004199985e-15 -4.853900714647609637e-15 0.000000000000000000e+00 -6.137490187252887774e-16 -6.962714526701026159e-15 1.360379093405595354e-15 -2.024599906129918282e-16 1.083155665078074180e-15 0.000000000000000000e+00 9.342991852343015151e-16 -1.105722016702979690e-15 0.000000000000000000e+00 -1.334777670833189754e-15 -4.565470473699145022e-15 0.000000000000000000e+00 -4.738328512227957072e-15 -4.091283206948642538e-15 1.360379093405595354e-15 -2.024599906129918282e-16 1.083155665078074180e-15 0.000000000000000000e+00 0.000000000000000000e+00 0.000000000000000000e+00 0.000000000000000000e+00 -2.697209690818967345e-15 -4.600982246262963608e-15 0.000000000000000000e+00 5.476012407710776507e-16 -2.282746281077306067e-15 1.360379093405595354e-15 -2.024599906129918282e-16 1.083155665078074180e-15 0.000000000000000000e+00 0.000000000000000000e+00 0.000000000000000000e+00 0.000000000000000000e+00 -2.311591914983881016e-15 -6.992287515702522765e-15 0.000000000000000000e+00 -2.349113411147817271e-15 -2.057732323332084553e-15 -4.951047874935827001e-03 3.302094221980269445e-03 -3.573382332315700296e-04 -4.925946544487756588e-03 1.780676734917883194e-03 2.015712185991654169e-03 -1.800374425375429743e-02 3.771719266723577713e-02 -2.079994279664871409e-02 8.304260034438300242e-03 -2.358121449325432245e-02 -2.778750987610923134e-03 0.000000000000000000e+00 0.000000000000000000e+00 0.000000000000000000e+00 -2.187941624962608894e-16 3.561296954945289007e-16 0.000000000000000000e+00 -4.263483508265728514e-15 1.162800971648887225e-15 0.000000000000000000e+00 8.901979500826070722e-16 9.097407521283268336e-17 -1.647857133933509401e-15 0.000000000000000000e+00 0.000000000000000000e+00 0.000000000000000000e+00 0.000000000000000000e+00 -1.201408601057172011e-15 4.017034427612771127e-16 0.000000000000000000e+00 -1.372459554799043110e-15 3.974307762376164314e-15 8.901979500826070722e-16 9.097407521283268336e-17 -1.647857133933509401e-15 0.000000000000000000e+00 -8.215073152897326378e-16 4.508569666828293099e-15 0.000000000000000000e+00 -1.505396732759118092e-15 -2.740402447089692215e-15 0.000000000000000000e+00 -7.868241380252513768e-16 1.984584598288703484e-15 8.901979500826070722e-16 9.097407521283268336e-17 -1.647857133933509401e-15 0.000000000000000000e+00 0.000000000000000000e+00 0.000000000000000000e+00 0.000000000000000000e+00 2.415859443655015700e-15 4.732613356350581529e-15 0.000000000000000000e+00 -1.375007860936579077e-15 2.923667231149579133e-15 8.901979500826070722e-16 9.097407521283268336e-17 -1.647857133933509401e-15 0.000000000000000000e+00 0.000000000000000000e+00 0.000000000000000000e+00 0.000000000000000000e+00 -1.409508062073274425e-15 3.356880794980504963e-15 0.000000000000000000e+00 -5.871637611758133244e-16 6.723800970927620693e-15
